{"accessors":[{"bufferView":0,"componentType":5121,"count":36,"max":[23],"min":[0],"type":"SCALAR"},{"bufferView":1,"componentType":5126,"count":24,"max":[1.0,1.0,0.20623354613780975],"min":[-1.0,-1.0,-0.20623354613780975],"type":"VEC3"},{"bufferView":2,"componentType":5126,"count":24,"max":[1.0,1.0,1.0],"min":[-1.0,-1.0,-1.0],"type":"VEC3"},{"bufferView":3,"componentType":5126,"count":24,"max":[1.0,1.0],"min":[0.0,0.0],"type":"VEC2"},{"bufferView":4,"componentType":5121,"count":96,"max":[47],"min":[0],"type":"SCALAR"},{"bufferView":5,"componentType":5126,"count":48,"max":[0.05337449908256531,0.5601070523262024,0.01904159039258957],"min":[-0.05337449908256531,-0.11162810027599335,-0.01904159039258957],"type":"VEC3"},{"bufferView":6,"componentType":5126,"count":48,"max":[1.0,0.7643299698829651,1.0],"min":[-1.0,-1.0,-1.0],"type":"VEC3"},{"bufferView":7,"componentType":5126,"count":48,"max":[0.875,1.0],"min":[0.125,0.0],"type":"VEC2"},{"bufferView":8,"componentType":5121,"count":96,"max":[43],"min":[0],"type":"SCALAR"},{"bufferView":9,"componentType":5126,"count":44,"max":[0.031441327184438705,0.7274881601333618,0.01904159039258957],"min":[-0.031441327184438705,-0.11162810027599335,-0.01904159039258957],"type":"VEC3"},{"bufferView":10,"componentType":5126,"count":44,"max":[1.0,0.5724944472312927,1.0],"min":[-1.0,-1.0,-1.0],"type":"VEC3"},{"bufferView":11,"componentType":5126,"count":44,"max":[0.875,1.0],"min":[0.125,0.0],"type":"VEC2"},{"bufferView":12,"componentType":5121,"count":96,"max":[43],"min":[0],"type":"SCALAR"},{"bufferView":13,"componentType":5126,"count":44,"max":[0.031441327184438705,0.9349184036254883,0.01904159039258957],"min":[-0.031441327184438705,-0.11162810027599335,-0.01904159039258957],"type":"VEC3"},{"bufferView":14,"componentType":5126,"count":44,"max":[1.0,0.5724944472312927,1.0],"min":[-1.0,-1.0,-1.0],"type":"VEC3"},{"bufferView":15,"componentType":5126,"count":44,"max":[0.5300429463386536,0.988181009888649],"min":[0.46995705366134644,-0.011819005012512207],"type":"VEC2"}],"asset":{"generator":"Soft8Soft Verge3D for Blender add-on","version":"2.0"},"bufferViews":[{"buffer":0,"byteLength":36,"byteOffset":0,"target":34963},{"buffer":0,"byteLength":288,"byteOffset":36,"target":34962},{"buffer":0,"byteLength":288,"byteOffset":324,"target":34962},{"buffer":0,"byteLength":192,"byteOffset":612,"target":34962},{"buffer":0,"byteLength":96,"byteOffset":804,"target":34963},{"buffer":0,"byteLength":576,"byteOffset":900,"target":34962},{"buffer":0,"byteLength":576,"byteOffset":1476,"target":34962},{"buffer":0,"byteLength":384,"byteOffset":2052,"target":34962},{"buffer":0,"byteLength":96,"byteOffset":2436,"target":34963},{"buffer":0,"byteLength":528,"byteOffset":2532,"target":34962},{"buffer":0,"byteLength":528,"byteOffset":3060,"target":34962},{"buffer":0,"byteLength":352,"byteOffset":3588,"target":34962},{"buffer":0,"byteLength":96,"byteOffset":3940,"target":34963},{"buffer":0,"byteLength":528,"byteOffset":4036,"target":34962},{"buffer":0,"byteLength":528,"byteOffset":4564,"target":34962},{"buffer":0,"byteLength":352,"byteOffset":5092,"target":34962}],"buffers":[{"byteLength":5444,"uri":"my_awesome_app.bin"}],"cameras":[{"extensions":{"S8S_v3d_camera_data":{"controls":"ORBIT","enablePan":true,"moveSpeed":1.0,"orbitMaxDistance":100.0,"orbitMaxPolarAngle":3.1415927410125732,"orbitMinDistance":0.0,"orbitMinPolarAngle":0.0,"orbitTarget":[0.0,0.0,-0.0],"rotateSpeed":1.0,"viewportFitInitialAspect":1.7777777777777777,"viewportFitType":"AUTO"}},"name":"Camera","perspective":{"aspectRatio":1.7777777777777777,"yfov":0.39959652046304894,"zfar":100.0,"znear":0.10000000149011612},"type":"perspective"}],"extensions":{"S8S_v3d_data":{"lights":[{"angle":0.6544984579086304,"color":[1.0,1.0,1.0],"constantAttenuation":1.0,"decay":2,"distance":29.999982833862305,"fallOffAngle":1.3089969158172607,"fallOffExponent":19.200000762939453,"intensity":2000.0,"linearAttenuation":0.0,"name":"Light","penumbra":0.15000000596046448,"profile":"blender","quadraticAttenuation":0.03333335240683057,"shadow":{"bias":-0.0018,"cameraFar":44.72136004979594,"cameraFov":1.3089969158172607,"cameraNear":0.05000000074505806,"cameraOrthoBottom":-1,"cameraOrthoLeft":-1,"cameraOrthoRight":1,"cameraOrthoTop":1,"mapSize":512,"radius":1.0,"slopeScaledBias":2.5},"type":"spot"},{"color":[0,0,0],"name":"Ambient_Scene","profile":"blender","type":"ambient"}]}},"extensionsUsed":["S8S_v3d_texture_data","S8S_v3d_material_data","S8S_v3d_camera_data","S8S_v3d_data","S8S_v3d_mesh_data","S8S_v3d_node_data","S8S_v3d_scene_data"],"images":[{"uri":"Wood_Beech_Diffuse_mqt_4096.png"},{"uri":"Wood_Mahogany_Diffuse_mqt_4096.png"}],"materials":[{"extensions":{"S8S_v3d_material_data":{"nodeGraph":{"edges":[{"fromNode":1,"fromOutput":0,"toInput":0,"toNode":0},{"fromNode":2,"fromOutput":0,"toInput":0,"toNode":1}],"nodes":[{"inputs":[[0,0,0,0],[0,0,0,0],[0.0,0.0,0.0]],"is_active_output":true,"name":"Material Output.002","outputs":[],"type":"OUTPUT_MATERIAL"},{"inputs":[[0.800000011920929,0.800000011920929,0.800000011920929,1.0],0.0,[1.0,0.20000000298023224,0.10000000149011612],[0.800000011920929,0.800000011920929,0.800000011920929,1.0],0.0,0.5,0.0,0.5,0.0,0.0,0.0,0.5,0.0,0.029999999329447746,1.4500000476837158,0.0,0.0,[0.0,0.0,0.0,1.0],1.0,[0.0,0.0,0.0],[0.0,0.0,0.0],[0.0,0.0,0.0]],"is_active_output":false,"name":"Principled BSDF","outputs":[[0,0,0,0]],"type":"BSDF_PRINCIPLED"},{"inputs":[[0.0,0.0,0.0]],"is_active_output":false,"name":"Image Texture","outputs":[[0.0,0.0,0.0,0.0],0.0],"projection":"FLAT","projectionBlend":0.0,"texture":0,"type":"TEX_IMAGE"}]},"useCastShadows":true}},"name":"2B_Wood_Beech_mqm"},{"extensions":{"S8S_v3d_material_data":{"nodeGraph":{"edges":[{"fromNode":0,"fromOutput":0,"toInput":0,"toNode":2},{"fromNode":2,"fromOutput":0,"toInput":0,"toNode":1}],"nodes":[{"inputs":[[0.0,0.0,0.0]],"is_active_output":false,"name":"Image Texture","outputs":[[0.0,0.0,0.0,0.0],0.0],"projection":"FLAT","projectionBlend":0.0,"texture":1,"type":"TEX_IMAGE"},{"inputs":[[0,0,0,0],[0,0,0,0],[0.0,0.0,0.0]],"is_active_output":true,"name":"Material Output.002","outputs":[],"type":"OUTPUT_MATERIAL"},{"inputs":[[0.800000011920929,0.800000011920929,0.800000011920929,1.0],0.0,[1.0,0.20000000298023224,0.10000000149011612],[0.800000011920929,0.800000011920929,0.800000011920929,1.0],0.0,0.5,0.0,0.5,0.0,0.0,0.0,0.5,0.0,0.029999999329447746,1.4500000476837158,0.0,0.0,[0.0,0.0,0.0,1.0],1.0,[0.0,0.0,0.0],[0.0,0.0,0.0],[0.0,0.0,0.0]],"is_active_output":false,"name":"Principled BSDF","outputs":[[0,0,0,0]],"type":"BSDF_PRINCIPLED"}]},"useCastShadows":true}},"name":"2D_Mahogany_mqm"},{"extensions":{"S8S_v3d_material_data":{"nodeGraph":{"edges":[{"fromNode":1,"fromOutput":0,"toInput":0,"toNode":0}],"nodes":[{"inputs":[[0,0,0,0],[0,0,0,0],[0.0,0.0,0.0]],"is_active_output":true,"name":"Material Output","outputs":[],"type":"OUTPUT_MATERIAL"},{"inputs":[[0.07068260759115219,0.11539343744516373,0.8000000715255737,1.0],0.0,[1.0,0.20000000298023224,0.10000000149011612],[0.800000011920929,0.800000011920929,0.800000011920929,1.0],0.0,0.5,0.0,0.5,0.0,0.0,0.0,0.5,0.0,0.029999999329447746,1.4500000476837158,0.0,0.0,[0.0,0.0,0.0,1.0],1.0,[0.0,0.0,0.0],[0.0,0.0,0.0],[0.0,0.0,0.0]],"is_active_output":false,"name":"Principled BSDF","outputs":[[0,0,0,0]],"type":"BSDF_PRINCIPLED"}]},"useCastShadows":true}},"name":"Material.001"},{"extensions":{"S8S_v3d_material_data":{"nodeGraph":{"edges":[{"fromNode":1,"fromOutput":0,"toInput":0,"toNode":0}],"nodes":[{"inputs":[[0,0,0,0],[0,0,0,0]],"is_active_output":true,"name":"World Output","outputs":[],"type":"OUTPUT_WORLD"},{"inputs":[[0.05087608844041824,0.05087608844041824,0.05087608844041824,1.0],1.0],"is_active_output":false,"name":"Background","outputs":[[0,0,0,0]],"type":"BACKGROUND"}]},"useCastShadows":true}},"name":"Verge3D_Environment_World"}],"meshes":[{"extensions":{"S8S_v3d_mesh_data":{"colorLayers":{},"uvLayers":{"UVMap":"TEXCOORD_0"}}},"name":"Cube","primitives":[{"attributes":{"NORMAL":2,"POSITION":1,"TEXCOORD_0":3},"indices":0,"material":0,"mode":4}]},{"extensions":{"S8S_v3d_mesh_data":{"colorLayers":{},"uvLayers":{"UVMap":"TEXCOORD_0"}}},"name":"Cube.001","primitives":[{"attributes":{"NORMAL":6,"POSITION":5,"TEXCOORD_0":7},"indices":4,"material":2,"mode":4}]},{"extensions":{"S8S_v3d_mesh_data":{"colorLayers":{},"uvLayers":{"UVMap":"TEXCOORD_0"}}},"name":"Cube.002","primitives":[{"attributes":{"NORMAL":10,"POSITION":9,"TEXCOORD_0":11},"indices":8,"material":2,"mode":4}]},{"extensions":{"S8S_v3d_mesh_data":{"colorLayers":{},"uvLayers":{"UVMap":"TEXCOORD_0"}}},"name":"Cube.003","primitives":[{"attributes":{"NORMAL":14,"POSITION":13,"TEXCOORD_0":15},"indices":12,"material":1,"mode":4}]}],"nodes":[{"extensions":{"S8S_v3d_node_data":{"frustumCulling":true,"groupNames":["Collection"],"hidden":false,"renderOrder":0,"useShadows":true}},"mesh":0,"name":"Cube"},{"extensions":{"S8S_v3d_node_data":{"frustumCulling":true,"groupNames":["Collection"],"hidden":false,"renderOrder":0,"useShadows":true}},"mesh":1,"name":"hour","scale":[1.0,1.0,0.4303499758243561],"translation":[0.0,0.0,0.21580013632774353]},{"camera":0,"extensions":{"S8S_v3d_node_data":{"frustumCulling":true,"groupNames":["Collection"],"hidden":false,"renderOrder":0}},"name":"Camera","rotation":[-0.2099730223417282,0.3857799768447876,0.09062845259904861,0.8937963247299194],"scale":[1.0,0.9999998807907104,0.9999998807907104],"translation":[7.358891487121582,4.958309173583984,6.925790786743164]},{"extensions":{"S8S_v3d_node_data":{"frustumCulling":true,"groupNames":["Collection"],"hidden":false,"renderOrder":0,"useShadows":true}},"mesh":2,"name":"minute","scale":[1.0,1.0,0.4303499758243561],"translation":[0.0,0.0,0.23303157091140747]},{"extensions":{"S8S_v3d_node_data":{"frustumCulling":true,"groupNames":["Collection"],"hidden":false,"renderOrder":0,"useShadows":true}},"mesh":3,"name":"sec","scale":[0.4188016653060913,1.0,0.37703847885131836],"translation":[0.0,0.0,0.24840915203094482]},{"extensions":{"S8S_v3d_node_data":{"frustumCulling":true,"groupNames":["Collection"],"hidden":false,"renderOrder":0}},"name":"Speaker","translation":[1.5113999843597412,0.497735857963562,0.22399675846099854]},{"extensions":{"S8S_v3d_node_data":{"frustumCulling":true,"groupNames":["Collection"],"hidden":false,"light":0,"renderOrder":0}},"name":"Light","rotation":[-0.36864033341407776,0.12431462854146957,0.08690009266138077,0.9171143770217896],"scale":[0.9999999403953552,0.9999999403953552,0.9999998807907104],"translation":[1.0790669918060303,5.903861999511719,5.639183521270752]}],"samplers":[{}],"scene":0,"scenes":[{"extensions":{"S8S_v3d_scene_data":{"aaMethod":"AUTO","light":1,"physicallyCorrectLights":true,"shadowMap":{"renderReverseSided":false,"renderSingleSided":true,"type":"PCFPOISSON"},"toneMapping":{"type":"filmicBlender"},"worldMaterial":3}},"extras":{"animFrameRate":24,"coordSystem":"Z_UP_RIGHT"},"name":"Scene","nodes":[0,6,2,1,3,4,5]}],"textures":[{"extensions":{"S8S_v3d_texture_data":{"colorSpace":"srgb"}},"name":"Wood_Beech_Diffuse_mqt_4096.png","sampler":0,"source":0},{"extensions":{"S8S_v3d_texture_data":{"colorSpace":"srgb"}},"name":"Wood_Mahogany_Diffuse_mqt_4096.png","sampler":0,"source":1}]}
